<?xml version="1.0" standalone="no"?>
<!DOCTYPE svg PUBLIC "-//W3C//DTD SVG 20010904//EN"
 "http://www.w3.org/TR/2001/REC-SVG-20010904/DTD/svg10.dtd">
<svg version="1.0" xmlns="http://www.w3.org/2000/svg"
 width="512.000000pt" height="512.000000pt" viewBox="0 0 512.000000 512.000000"
 preserveAspectRatio="xMidYMid meet">
<metadata>
Created by potrace 1.14, written by Peter Selinger 2001-2017
</metadata>
<g transform="translate(0.000000,512.000000) scale(0.100000,-0.100000)"
fill="#000000" stroke="none">
<path d="M2522 4164 c-11 -12 -17 -12 -28 -3 -11 9 -14 8 -14 -2 0 -11 -2 -11
-10 1 -8 13 -10 13 -10 1 0 -11 -3 -12 -11 -4 -15 15 -61 -7 -54 -26 4 -11 2
-11 -8 -3 -10 9 -19 7 -37 -5 -17 -12 -21 -13 -15 -2 7 11 5 11 -11 -1 -10 -8
-22 -19 -26 -25 -5 -6 -8 -6 -8 -1 0 6 -7 1 -16 -10 -8 -10 -13 -12 -9 -4 4 8
-3 4 -15 -10 -12 -14 -19 -18 -15 -10 4 10 2 9 -8 -2 -8 -10 -18 -14 -22 -10
-5 4 -6 -1 -2 -10 6 -17 -17 -33 -33 -23 -5 3 -7 -3 -5 -14 3 -15 -1 -18 -18
-15 -12 2 -17 2 -10 -1 12 -6 -30 -55 -47 -55 -5 0 -12 -5 -16 -12 -4 -7 -3
-8 4 -4 8 5 10 2 6 -8 -3 -9 -11 -13 -17 -9 -6 4 -8 0 -4 -10 5 -13 1 -17 -15
-17 -18 0 -19 -2 -7 -17 8 -9 9 -14 3 -10 -7 4 -18 -1 -25 -10 -12 -14 -12
-16 1 -9 8 4 7 1 -3 -7 -10 -9 -19 -19 -20 -24 -1 -4 -6 -7 -10 -5 -5 1 -6 -2
-2 -8 3 -5 2 -10 -3 -10 -5 0 -12 -14 -16 -31 -5 -25 -10 -30 -23 -24 -14 4
-15 3 -7 -5 9 -9 8 -19 -3 -41 -8 -16 -19 -29 -24 -29 -5 0 -9 -5 -9 -11 0 -5
5 -7 11 -4 6 4 5 -2 -3 -14 -7 -12 -16 -21 -21 -21 -4 0 -5 -4 -2 -10 3 -5 1
-10 -5 -10 -7 0 -10 -6 -7 -14 3 -7 0 -19 -6 -26 -9 -10 -9 -11 3 -6 12 6 12
5 -1 -6 -15 -12 -34 -64 -31 -80 1 -5 -3 -8 -9 -8 -6 0 -9 -7 -5 -15 3 -8 0
-15 -6 -15 -6 0 -9 -3 -5 -6 3 -4 0 -22 -8 -42 -8 -19 -18 -46 -21 -61 -7 -37
-12 -56 -14 -56 -2 0 -7 -21 -15 -60 -3 -16 -8 -41 -11 -55 -10 -49 -15 -75
-16 -90 0 -8 -5 -21 -11 -27 -6 -9 -6 -13 1 -13 7 0 7 -11 1 -34 -5 -19 -11
-58 -14 -87 -2 -30 -4 -54 -5 -54 -6 0 -18 -112 -35 -350 -12 -164 -13 -420
-1 -434 8 -11 8 -13 -1 -8 -9 6 -11 -3 -8 -30 3 -21 7 -69 10 -108 3 -38 8
-88 11 -110 2 -22 5 -48 6 -57 1 -10 6 -18 11 -18 4 0 6 -4 3 -8 -5 -8 8 -69
21 -102 4 -8 7 -18 7 -22 1 -3 4 -10 9 -14 4 -4 7 -13 7 -20 0 -23 69 -160
119 -236 60 -92 170 -205 251 -257 81 -52 193 -98 282 -115 71 -14 271 -16
330 -3 47 9 132 39 173 60 22 12 43 20 47 19 3 -1 12 5 18 13 7 8 16 15 21 15
15 0 109 71 109 83 0 6 3 8 6 5 7 -8 97 85 140 144 44 60 110 177 106 190 -1
5 3 8 9 8 5 0 7 5 4 10 -3 6 -2 10 3 10 5 0 9 6 9 13 1 6 12 42 27 80 14 37
23 67 20 67 -4 0 -2 6 4 13 14 17 31 127 36 239 2 36 6 70 8 74 7 15 3 378 -5
391 -4 6 -3 14 3 18 6 4 8 11 4 16 -5 9 -9 59 -19 219 -1 25 -3 45 -4 45 -2 0
-4 25 -7 55 -2 30 -6 69 -9 85 -6 33 -14 98 -19 161 -2 23 -6 46 -10 53 -4 6
-5 15 -1 20 3 5 1 12 -5 16 -6 4 -8 10 -5 15 4 7 -5 55 -31 160 -14 60 -33
120 -44 140 -7 14 -12 27 -11 30 5 9 -34 120 -42 120 -5 0 -6 4 -2 9 3 5 -1
15 -8 23 -15 15 -17 20 -17 49 0 13 -4 18 -12 13 -8 -5 -9 -2 -5 9 3 9 2 19
-4 22 -5 4 -6 11 -3 17 4 7 2 8 -4 4 -11 -6 -16 6 -13 27 0 4 -4 7 -9 7 -6 0
-10 7 -10 15 0 8 -5 15 -11 15 -8 0 -7 5 1 16 11 12 11 15 -1 12 -8 -2 -13 4
-12 15 0 10 -1 16 -4 13 -8 -8 -33 21 -33 38 0 9 -4 16 -10 16 -5 0 -10 7 -10
16 0 10 -5 14 -16 10 -8 -3 -12 -2 -9 4 3 5 -3 18 -15 30 -22 22 -27 35 -8 24
7 -4 8 -3 4 5 -4 6 -12 9 -17 5 -6 -3 -13 3 -16 15 -3 12 -9 21 -14 21 -5 0
-9 7 -9 16 0 14 -3 14 -15 4 -9 -7 -18 -10 -22 -6 -3 3 -1 6 6 6 9 0 9 5 1 20
-6 11 -17 20 -25 20 -7 0 -17 5 -21 12 -5 7 -3 8 6 3 9 -5 11 -4 6 4 -6 9 -11
9 -22 0 -9 -7 -14 -8 -13 -3 4 21 -2 35 -11 29 -5 -3 -10 2 -11 12 0 10 -3 13
-6 6 -3 -9 -11 -7 -26 7 -11 11 -27 20 -34 20 -7 0 -13 5 -13 11 0 8 -5 7 -15
-1 -13 -11 -14 -10 -9 3 4 12 1 14 -15 10 -13 -3 -21 -1 -21 7 0 8 -11 11 -30
8 -16 -3 -30 0 -30 5 0 5 -7 6 -16 3 -8 -3 -12 -2 -9 4 9 14 -8 12 -24 -2 -11
-11 -12 -10 -6 1 5 9 3 12 -6 9 -8 -3 -22 -1 -33 4 -12 7 -16 7 -12 0 3 -5 -1
-13 -10 -16 -12 -4 -15 -2 -10 9 7 19 -5 19 -22 -1z m-82 -8 c0 -2 -8 -10 -17
-17 -16 -13 -17 -12 -4 4 13 16 21 21 21 13z"/>
<path d="M1108 3775 c-1 -2 -23 -6 -48 -9 -25 -2 -56 -8 -70 -11 -14 -3 -29
-7 -35 -8 -5 -2 -16 -6 -22 -10 -7 -5 -13 -5 -13 -2 0 4 -13 -3 -29 -14 -16
-12 -32 -21 -35 -21 -10 0 -66 -59 -66 -70 0 -5 -4 -10 -9 -10 -10 0 -27 -39
-23 -52 1 -5 -3 -8 -10 -8 -6 0 -8 -3 -5 -7 4 -3 0 -15 -10 -25 -9 -10 -13
-18 -10 -18 4 0 -3 -21 -14 -47 -34 -78 -48 -184 -43 -333 2 -74 6 -153 9
-175 7 -54 16 -153 18 -192 1 -18 4 -33 7 -33 5 0 10 -38 13 -97 0 -13 4 -23
8 -23 4 0 6 -11 4 -25 -1 -14 1 -25 5 -25 4 0 6 -10 5 -22 -1 -13 0 -27 4 -33
3 -5 7 -18 8 -27 5 -33 12 -63 14 -65 1 -2 3 -7 4 -13 1 -5 3 -11 5 -12 1 -2
3 -12 5 -23 4 -26 34 -136 42 -155 3 -8 7 -22 9 -30 2 -8 17 -51 34 -95 17
-44 32 -85 33 -91 2 -6 11 -23 20 -37 10 -15 15 -27 11 -27 -3 0 8 -25 25 -55
17 -30 31 -62 31 -70 0 -8 5 -15 11 -15 5 0 7 -5 4 -10 -3 -5 -1 -10 4 -10 6
0 11 -7 11 -15 0 -8 3 -15 8 -15 4 0 12 -10 18 -23 34 -67 46 -87 55 -87 6 0
8 -4 5 -9 -4 -5 -3 -11 1 -13 5 -1 28 -30 53 -63 49 -65 253 -275 267 -275 5
0 20 -11 33 -25 13 -14 29 -25 37 -25 7 0 13 -5 13 -11 0 -5 4 -8 9 -5 5 4 11
3 13 -1 5 -13 59 -46 133 -83 39 -19 72 -37 75 -40 3 -3 14 -7 25 -8 11 -2 21
-8 23 -12 2 -5 9 -7 16 -4 7 3 19 -2 26 -10 7 -9 17 -13 22 -10 6 4 6 9 2 13
-13 9 -68 90 -95 141 -13 25 -26 47 -29 50 -7 6 -56 109 -71 147 -40 100 -68
186 -64 193 3 5 1 10 -4 12 -6 1 -12 17 -15 33 -2 17 -5 31 -6 33 -2 1 -4 11
-5 22 -1 11 -4 22 -5 25 -4 7 -5 14 -15 70 -4 28 -9 57 -11 65 -7 34 -14 89
-18 147 -2 34 -6 66 -9 70 -6 11 -1 464 7 533 15 142 25 217 36 275 5 28 11
65 12 83 1 17 5 32 8 32 4 0 6 10 5 23 -1 12 2 37 7 56 10 36 17 65 23 96 3
17 8 37 19 80 1 6 6 26 10 45 5 19 14 38 20 42 8 5 7 8 -2 8 -7 0 -10 5 -6 11
5 9 22 68 50 174 18 70 14 93 -22 125 -49 43 -157 90 -243 106 -8 2 -26 6 -40
10 -44 12 -264 27 -273 19z"/>
<path d="M3866 3773 c-2 -2 -26 -6 -53 -8 -53 -4 -88 -10 -148 -27 -22 -6 -45
-12 -50 -13 -26 -6 -113 -49 -143 -72 -34 -26 -68 -79 -53 -85 5 -2 10 -19 12
-38 2 -19 6 -39 9 -45 4 -5 13 -37 20 -70 7 -33 17 -68 22 -77 4 -10 10 -30
13 -45 2 -15 9 -46 14 -68 11 -49 19 -82 26 -115 3 -14 8 -36 11 -50 5 -25 10
-49 19 -97 3 -16 7 -41 9 -58 3 -16 7 -43 10 -60 3 -16 8 -52 11 -80 3 -27 7
-60 10 -73 19 -98 27 -568 11 -697 -5 -38 -10 -81 -11 -95 -4 -36 -15 -100
-22 -135 -3 -16 -7 -39 -9 -50 -2 -11 -13 -54 -24 -95 -11 -41 -22 -83 -25
-92 -2 -9 -8 -25 -14 -36 -6 -11 -7 -22 -4 -26 3 -3 0 -6 -7 -6 -7 0 -11 -3
-7 -6 3 -3 -7 -33 -22 -67 -15 -34 -34 -77 -42 -94 -7 -18 -18 -33 -22 -33 -5
0 -5 -4 -2 -10 3 -5 2 -10 -3 -10 -5 0 -12 -8 -16 -17 -7 -23 -32 -65 -74
-125 -17 -26 -32 -49 -32 -51 0 -6 54 5 60 12 3 3 16 12 29 19 19 11 22 11 15
0 -6 -10 -5 -10 7 -2 8 6 51 31 97 54 45 24 82 46 82 50 0 4 11 11 25 14 14 4
25 11 25 16 0 6 7 10 15 10 8 0 15 3 15 8 0 4 11 14 24 22 34 21 132 108 175
154 20 22 48 52 64 68 15 16 27 33 27 38 0 4 3 10 8 12 12 5 72 86 72 97 0 5
3 11 8 13 10 5 52 66 52 77 0 5 4 11 8 13 5 2 28 44 52 93 25 50 49 93 55 97
5 4 6 8 2 8 -4 0 -2 10 5 23 7 12 13 24 13 27 1 3 9 23 18 44 10 21 24 60 32
85 9 25 18 53 22 61 3 8 7 17 8 20 27 86 35 119 38 147 1 13 5 23 8 23 6 0 27
91 35 145 1 11 3 20 4 20 1 0 6 26 13 75 2 8 6 20 9 26 4 6 8 38 10 72 2 34 6
62 9 62 6 0 10 45 13 122 0 21 4 38 7 38 3 0 6 15 6 33 1 66 11 292 13 302 1
6 1 12 0 15 -3 9 -10 44 -15 80 -9 62 -14 83 -24 93 -5 5 -7 16 -4 23 3 8 0
14 -6 14 -6 0 -10 3 -9 8 1 4 -3 18 -9 32 -6 14 -11 28 -12 33 -8 51 -130 187
-167 187 -7 0 -15 6 -17 13 -4 9 -6 9 -6 0 -1 -9 -10 -8 -36 3 -19 8 -35 11
-35 8 0 -4 -6 -2 -12 3 -15 12 -10 11 -140 17 -53 2 -99 2 -102 -1z"/>
<path d="M443 3084 c4 -7 -9 -12 -36 -13 -23 -2 -48 -3 -54 -4 -7 0 -13 -4
-13 -8 0 -4 -8 -6 -18 -4 -33 6 -158 -61 -210 -112 -60 -60 -88 -111 -98 -183
-10 -77 -11 -190 -2 -196 4 -3 8 -14 8 -25 0 -50 90 -257 132 -303 10 -11 18
-25 18 -32 0 -7 8 -19 18 -26 11 -7 24 -22 30 -34 24 -46 179 -208 296 -309
38 -33 77 -68 88 -77 10 -10 18 -15 18 -10 0 4 4 2 8 -4 10 -17 159 -115 209
-139 24 -11 43 -24 43 -28 0 -5 5 -5 11 -2 6 4 16 -1 24 -11 11 -16 15 -16 29
-5 14 12 16 12 10 -3 -3 -9 -2 -16 3 -16 16 0 11 34 -6 47 -9 7 -11 13 -6 13
6 0 -3 10 -20 21 -19 13 -23 19 -10 15 19 -6 19 -5 3 7 -10 8 -14 17 -10 21 4
4 0 6 -8 4 -9 -2 -14 4 -14 15 2 15 -8 21 -28 18 -4 0 -5 6 -2 14 4 9 0 15 -7
15 -11 0 -11 3 1 10 13 8 13 10 -2 10 -15 0 -35 34 -30 53 1 4 -5 7 -13 7 -8
0 -14 3 -13 8 2 9 -44 105 -54 113 -5 3 -10 16 -11 27 -1 12 -4 22 -7 22 -5 0
-29 54 -35 80 -1 3 -4 12 -8 20 -6 17 -30 91 -33 103 -1 4 -3 9 -4 12 -1 3 -4
10 -5 15 -1 6 -3 11 -5 13 -1 1 -3 9 -5 17 -2 8 -12 42 -23 75 -11 33 -25 85
-31 115 -6 30 -14 66 -17 80 -3 14 -7 44 -7 67 -1 24 -4 43 -7 43 -3 0 -6 8
-7 18 0 9 -4 46 -8 82 -3 36 -8 103 -10 150 -8 172 -16 217 -36 204 -5 -3 -17
0 -26 8 -9 7 -14 8 -10 2z"/>
<path d="M4619 3055 c0 -11 -2 -36 -5 -57 -2 -20 -6 -76 -8 -125 -9 -146 -13
-186 -36 -326 -6 -37 -8 -72 -5 -78 4 -5 2 -9 -2 -9 -5 0 -14 -24 -21 -52 -7
-29 -14 -57 -15 -63 -2 -5 -9 -30 -16 -55 -7 -25 -14 -51 -16 -58 -3 -7 -5
-16 -6 -20 0 -4 -4 -11 -9 -17 -4 -5 -6 -18 -5 -27 2 -10 -1 -18 -5 -18 -5 0
-12 -16 -16 -35 -3 -19 -10 -38 -15 -41 -5 -3 -7 -9 -4 -14 3 -5 1 -11 -5 -15
-5 -3 -10 -14 -10 -24 0 -10 -7 -24 -15 -31 -8 -6 -14 -15 -13 -18 3 -15 -15
-62 -23 -62 -5 0 -8 -3 -7 -7 3 -15 -14 -43 -23 -37 -5 3 -6 -1 -3 -9 3 -8 0
-18 -5 -22 -6 -3 -8 -11 -5 -17 5 -8 1 -9 -11 -4 -14 5 -15 3 -7 -6 11 -15
-10 -42 -24 -30 -5 4 -2 -1 6 -11 11 -16 11 -18 -1 -15 -8 2 -13 -3 -12 -9 2
-7 -4 -13 -13 -13 -14 0 -14 -3 -4 -15 11 -13 10 -14 -5 -9 -13 5 -16 4 -11
-4 4 -7 2 -12 -3 -12 -6 0 -11 -9 -11 -21 0 -14 -5 -19 -14 -16 -11 4 -13 1
-9 -10 5 -12 2 -15 -9 -10 -12 4 -14 1 -10 -15 4 -17 2 -20 -13 -14 -15 5 -16
4 -5 -9 10 -12 9 -15 -6 -15 -15 0 -16 -2 -5 -9 11 -7 11 -9 0 -13 -8 -3 -11
-9 -7 -13 4 -4 14 -3 21 3 8 7 17 9 20 5 4 -3 7 -2 7 4 0 5 25 20 55 33 30 13
55 27 55 32 0 5 5 6 10 3 6 -3 10 -1 10 4 0 6 7 11 15 11 8 0 15 5 15 10 0 6
4 10 9 10 12 0 105 61 109 72 2 4 8 8 14 8 6 0 20 10 32 23 12 12 43 39 69 60
50 40 215 202 257 253 54 64 110 141 110 152 0 7 4 12 8 12 5 0 26 35 48 78
21 42 41 79 44 82 3 3 7 12 8 20 2 8 5 22 7 30 2 8 9 31 15 50 19 61 23 83 23
145 1 175 -37 256 -158 341 -50 36 -107 65 -99 52 6 -10 5 -10 -7 -1 -21 17
-104 35 -171 37 -52 1 -58 -1 -59 -19z"/>
</g>
</svg>
